HIERARCHY
ROOT SpineBase
{
  OFFSET 0.000000 0.000000 0.000000
  CHANNELS 6 Xposition Yposition Zposition Zrotation Xrotation Yrotation
  JOINT SpineMid
  {
    OFFSET 0.000000 27.246763 0.000000
    CHANNELS 3 Zrotation Xrotation Yrotation
    JOINT SpineShoulder
    {
      OFFSET 0.154330 20.211140 -0.669142
      CHANNELS 3 Zrotation Xrotation Yrotation
      JOINT Neck
      {
        OFFSET 0.300394 6.650509 -0.506972
        CHANNELS 3 Zrotation Xrotation Yrotation
        JOINT Head
        {
          OFFSET 3.697661 10.831007 2.768703
          CHANNELS 3 Zrotation Xrotation Yrotation
          End Site
          {
            OFFSET 0 0 0
          }
        }
      }
      JOINT ShoulderLeft
      {
        OFFSET -5.260333 -4.506014 -11.757138
        CHANNELS 3 Zrotation Xrotation Yrotation
        JOINT ElbowLeft
        {
          OFFSET -5.142903 -19.014006 -7.488709
          CHANNELS 3 Zrotation Xrotation Yrotation
          JOINT WristLeft
          {
            OFFSET -2.061754 -22.941793 -0.922206
            CHANNELS 3 Zrotation Xrotation Yrotation
            JOINT HandLeft
            {
              OFFSET -0.905284 -8.546623 1.414191
              CHANNELS 3 Zrotation Xrotation Yrotation
              JOINT HandTipLeft
              {
                OFFSET -0.264111 -5.841594 -0.643765
                CHANNELS 3 Zrotation Xrotation Yrotation
                End Site
                {
                  OFFSET 0 0 0
                }
              }
              JOINT ThumbLeft
              {
                OFFSET 1.993021 0.209463 0.564410
                CHANNELS 3 Zrotation Xrotation Yrotation
                End Site
                {
                  OFFSET 0 0 0
                }
              }
            }
          }
        }
      }
      JOINT ShoulderRight
      {
        OFFSET 8.776546 -6.728709 13.356598
        CHANNELS 3 Zrotation Xrotation Yrotation
        JOINT ElbowRight
        {
          OFFSET -11.724566 -15.095988 -21.121085
          CHANNELS 3 Zrotation Xrotation Yrotation
          JOINT WristRight
          {
            OFFSET -4.613358 -25.968299 -7.911134
            CHANNELS 3 Zrotation Xrotation Yrotation
            JOINT HandRight
            {
              OFFSET -3.362059 -6.638113 0.919793
              CHANNELS 3 Zrotation Xrotation Yrotation
              JOINT HandTipRight
              {
                OFFSET -2.263502 -5.845281 -3.166921
                CHANNELS 3 Zrotation Xrotation Yrotation
                End Site
                {
                  OFFSET 0 0 0
                }
              }
              JOINT ThumbRight
              {
                OFFSET -0.799726 -3.265032 -2.501694
                CHANNELS 3 Zrotation Xrotation Yrotation
                End Site
                {
                  OFFSET 0 0 0
                }
              }
            }
          }
        }
      }
    }
  }
  JOINT HipLeft
  {
    OFFSET -3.323335 1.090908 -5.213086
    CHANNELS 3 Zrotation Xrotation Yrotation
    JOINT KneeLeft
    {
      OFFSET -12.390586 -33.308232 0.292114
      CHANNELS 3 Zrotation Xrotation Yrotation
      JOINT AnkleLeft
      {
        OFFSET -10.843246 -28.322418 5.143202
        CHANNELS 3 Zrotation Xrotation Yrotation
        JOINT FootLeft
        {
          OFFSET 1.255447 -6.449093 0.982490
          CHANNELS 3 Zrotation Xrotation Yrotation
          End Site
          {
            OFFSET 0 0 0
          }
        }
      }
    }
  }
  JOINT HipRight
  {
    OFFSET 2.905479 0.296575 -1.021161
    CHANNELS 3 Zrotation Xrotation Yrotation
    JOINT KneeRight
    {
      OFFSET -9.497552 -34.882272 7.122764
      CHANNELS 3 Zrotation Xrotation Yrotation
      JOINT AnkleRight
      {
        OFFSET -10.923530 -29.432089 13.126586
        CHANNELS 3 Zrotation Xrotation Yrotation
        JOINT FootRight
        {
          OFFSET -0.580189 -7.249965 -3.631158
          CHANNELS 3 Zrotation Xrotation Yrotation
          End Site
          {
            OFFSET 0 0 0
          }
        }
      }
    }
  }
}
MOTION
Frames: 9
Frame Time: 0.033333
24.050220 73.282801 322.744543 -5.885540 0.348659 -66.622074 0.291454 0.785659 66.472586 2.524345 0.181678 -0.035360 1.087494 3.958632 -0.892399 0.000000 0.000000 0.000000 7.770239 3.574611 -3.088013 23.572636 3.970413 1.251008 18.434616 16.782587 1.734779 -24.230618 -20.344151 -8.428082 0.000000 0.000000 0.000000 0.000000 0.000000 0.000000 74.359144 -67.794088 -0.738595 48.400715 30.154549 -74.522017 45.770431 27.791233 -49.759837 -58.775077 -26.771025 -91.967164 0.000000 0.000000 0.000000 0.000000 0.000000 0.000000 6.025271 7.671067 66.958509 -1.614558 1.605052 -0.270200 17.127117 32.060953 3.106490 0.000000 0.000000 0.000000 6.625220 15.871437 67.962176 -12.929334 13.969998 -8.575909 42.486129 -5.448161 -6.871217 0.000000 0.000000 0.000000
23.692529 73.443595 322.777989 -6.797695 0.584791 -63.997724 0.550619 1.177874 63.847933 2.290796 0.319061 -0.078286 3.193774 3.209086 -1.081601 0.000000 0.000000 0.000000 7.670459 4.153903 -2.924461 25.256840 4.824349 0.985912 19.414127 17.773346 1.646884 -25.255260 -21.167759 -9.005741 0.000000 0.000000 0.000000 0.000000 0.000000 0.000000 110.552350 -76.772883 18.325675 42.874456 49.394964 -87.881874 41.297885 49.398211 1.220782 -56.205578 -1.574977 -136.712575 0.000000 0.000000 0.000000 0.000000 0.000000 0.000000 6.849733 8.755508 64.096237 -0.911872 0.222837 0.482616 30.805221 48.018073 -2.225319 0.000000 0.000000 0.000000 8.837341 16.448577 65.286351 -13.406036 14.767795 -8.821688 38.886948 -7.256900 -4.685227 0.000000 0.000000 0.000000
23.099854 73.797596 322.745749 -8.155173 0.940400 -59.902380 1.066807 1.675772 59.753144 1.944747 0.524957 -0.139449 5.848230 2.241791 -1.215478 0.000000 0.000000 0.000000 7.698552 4.453829 -2.572258 27.154544 5.849517 0.517284 19.912130 18.721654 1.534315 -26.826574 -23.586142 -9.291514 0.000000 0.000000 0.000000 0.000000 0.000000 0.000000 121.145002 -80.161620 16.823468 40.303170 61.005754 -92.586055 -22.894217 44.221603 147.792742 -17.368871 20.261121 124.620376 0.000000 0.000000 0.000000 0.000000 0.000000 0.000000 8.572072 10.367888 59.641344 -0.824359 -0.917046 1.152726 38.260458 55.748573 -7.850949 0.000000 0.000000 0.000000 12.323671 16.813801 61.079333 -13.736982 15.215091 -8.746499 34.917462 -3.504010 -5.580874 0.000000 0.000000 0.000000
22.355358 74.312182 322.656557 -9.808869 1.383165 -53.891637 1.762015 2.065901 53.748992 1.535828 0.738204 -0.214545 8.897604 1.301722 -1.313606 0.000000 0.000000 0.000000 7.933664 4.643438 -2.120576 29.138657 6.723678 0.057400 19.618810 19.714737 1.227941 -27.407764 -25.872583 -9.300283 0.000000 0.000000 0.000000 0.000000 0.000000 0.000000 88.085538 -80.297771 -27.488509 33.411474 66.078243 -78.763401 -23.942119 43.173497 141.271902 -23.403611 18.945741 133.764094 0.000000 0.000000 0.000000 0.000000 0.000000 0.000000 11.304182 11.926616 53.131134 -1.260595 -1.910491 1.742653 42.770063 60.666552 -12.478180 0.000000 0.000000 0.000000 16.852511 16.143841 54.958029 -13.683439 15.063281 -8.242287 31.736482 4.765456 -8.873644 0.000000 0.000000 0.000000
21.528459 74.926924 322.543366 -11.581968 1.858723 -50.101177 2.410346 2.348511 49.974757 1.150310 0.911048 -0.293255 11.798670 0.518416 -1.311761 0.000000 0.000000 0.000000 8.365731 4.787093 -1.641805 30.964600 7.670736 -0.438458 18.571029 20.158836 1.149226 -25.969374 -27.875256 -8.560182 0.000000 0.000000 0.000000 0.000000 0.000000 0.000000 59.885157 -68.398689 -66.321345 28.220230 64.717205 -48.975434 -20.111674 46.183254 124.979731 -38.794147 14.867503 151.060391 0.000000 0.000000 0.000000 0.000000 0.000000 0.000000 14.554869 13.479543 48.885133 -2.196929 -2.145760 1.965854 42.438872 62.853592 -13.647388 0.000000 0.000000 0.000000 20.131810 16.435120 50.942535 -14.324883 15.477888 -8.448206 30.552143 7.552329 -9.210202 0.000000 0.000000 0.000000
20.187212 75.626805 322.266240 -13.985302 2.484474 -46.928398 3.076958 2.670247 46.850766 0.945537 1.001879 -0.382515 14.496434 -0.196200 -1.129591 0.000000 0.000000 0.000000 9.310690 4.747572 -1.140168 32.556839 8.516570 -0.869838 16.528090 20.026713 1.206914 -22.911343 -30.229158 -6.864528 0.000000 0.000000 0.000000 0.000000 0.000000 0.000000 59.308636 -62.798361 -74.593568 18.755230 66.046720 -28.581337 -2.759872 52.367946 79.252785 -54.584388 -0.181051 -160.014522 0.000000 0.000000 0.000000 0.000000 0.000000 0.000000 19.290205 15.487962 45.073086 -4.166355 -1.774100 1.880975 35.025620 62.467933 -9.687548 0.000000 0.000000 0.000000 25.043928 17.474113 47.493404 -15.927084 16.097805 -8.745214 28.880155 7.932060 -8.813506 0.000000 0.000000 0.000000
19.559493 76.111771 322.259612 -15.226412 2.772940 -44.356713 3.176999 2.573032 44.313271 0.624980 1.068508 -0.459439 16.502911 -0.703689 -0.921138 0.000000 0.000000 0.000000 10.065429 4.825208 -0.737889 33.644039 9.250701 -1.229385 13.772073 18.830959 1.672492 -18.020514 -31.537267 -4.435523 0.000000 0.000000 0.000000 0.000000 0.000000 0.000000 59.860543 -56.009505 -81.225716 4.227538 67.031587 -6.143167 9.727750 50.472049 49.465327 -60.678167 -23.256178 -120.723396 0.000000 0.000000 0.000000 0.000000 0.000000 0.000000 21.923594 16.136844 42.106182 -5.347624 -1.440305 1.726128 32.661420 63.747700 -8.364514 0.000000 0.000000 0.000000 27.360676 17.391308 44.785472 -16.198014 14.988874 -8.274365 28.455880 12.294676 -10.963085 0.000000 0.000000 0.000000
19.603276 76.339719 322.501529 -15.363687 2.712736 -42.666140 2.756818 2.200247 42.614907 0.454532 1.009371 -0.503320 17.331494 -0.758682 -0.794859 0.000000 0.000000 0.000000 10.369682 5.046720 -0.485073 34.120174 10.153437 -1.665217 10.824859 16.799393 2.401158 -11.376072 -30.346995 -1.971300 0.000000 0.000000 0.000000 0.000000 0.000000 0.000000 60.649530 -47.585202 -87.218093 -8.780987 65.502175 15.269166 12.809761 46.847784 37.210925 -56.437684 -34.435680 -98.485494 0.000000 0.000000 0.000000 0.000000 0.000000 0.000000 22.240350 15.960261 40.299904 -5.570297 -1.129565 1.532150 30.083816 64.577958 -6.399185 0.000000 0.000000 0.000000 27.311370 16.695179 43.098103 -15.460919 13.180233 -7.454625 29.792775 18.671346 -14.789433 0.000000 0.000000 0.000000
20.372807 76.264712 322.953875 -14.338665 2.372885 -42.315465 1.855619 1.611525 42.218297 0.462244 0.799955 -0.510386 16.938395 -0.524341 -0.739951 0.000000 0.000000 0.000000 9.937247 5.556626 -0.381294 33.998772 10.867330 -1.984765 7.836025 14.532723 2.940909 -4.578176 -29.755475 0.737179 0.000000 0.000000 0.000000 0.000000 0.000000 0.000000 60.940813 -40.815510 -90.490158 -14.525212 63.088922 27.191671 13.003784 42.051188 24.658924 -45.401480 -38.913965 -85.245117 0.000000 0.000000 0.000000 0.000000 0.000000 0.000000 19.992890 15.039656 40.158411 -4.753728 -0.615231 1.204510 27.278103 64.872262 -3.657344 0.000000 0.000000 0.000000 24.828568 15.620546 42.837180 -14.148041 12.642711 -7.209130 28.652806 17.570351 -13.645382 0.000000 0.000000 0.000000
